<?xml version="1.0" encoding="utf-8"?>
<!-- Generator: Adobe Illustrator 23.0.1, SVG Export Plug-In . SVG Version: 6.00 Build 0)  -->
<svg xmlns="http://www.w3.org/2000/svg" xmlns:xlink="http://www.w3.org/1999/xlink" version="1.1" id="Layer_1" x="0px" y="0px" viewBox="0 0 64 64" style="enable-background:new 0 0 64 64;" xml:space="preserve" width="512" height="512">
<style type="text/css">
	.st0{fill:#FFE885;}
	.st1{fill:#F0DC78;}
	.st2{fill:#FFFA96;}
	.st3{fill:#FA8CB4;}
	.st4{fill:#E678A0;}
	.st5{fill:#FFA0C8;}
	.st6{fill:#DCC864;}
	.st7{fill:#AAD2FF;}
	.st8{fill:#96BEF0;}
	.st9{fill:#BEE6FF;}
	.st10{fill:#785AE6;}
	.st11{fill:#D2648C;}
	.st12{fill:#82AADC;}
	.st13{fill:#F0F0E6;}
	.st14{fill:#968CD2;}
	.st15{fill:#A2BAFF;}
	.st16{fill:#96AAF0;}
	.st17{fill:#B4C8FF;}
	.st18{fill:#A99BE0;}
	.st19{fill:#DCDCD2;}
	.st20{fill:#FFFFFA;}
	.st21{fill:#C8B450;}
	.st22{fill:#D2D2C8;}
	.st23{fill:#BEBEB4;}
	.st24{fill:#B4AAF0;}
	.st25{fill:#8D7BD4;}
	.st26{fill:#C8C8BE;}
	.st27{fill:#B4B4AA;}
	.st28{fill:#F0A0AA;}
	.st29{fill:#FFB4BE;}
	.st30{fill:#FFC8D2;}
	.st31{fill:#F09696;}
	.st32{fill:none;stroke:#785AE6;stroke-linecap:round;stroke-linejoin:round;stroke-miterlimit:10;}
	.st33{fill:#FFFFDC;}
	.st34{fill:#C8DCFF;}
	.st35{fill:#826EC8;}
	.st36{fill:#8296DC;}
	.st37{fill:#FFB4DC;}
	.st38{fill:#A2BAFF;stroke:#785AE6;stroke-linecap:round;stroke-linejoin:round;stroke-miterlimit:10;}
	.st39{fill:none;stroke:#785AE6;stroke-miterlimit:10;}
	.st40{fill:#C85A82;}
	.st41{fill:#FFD2DC;}
	.st42{fill:none;stroke:#8D7BD4;stroke-linecap:round;stroke-linejoin:round;stroke-miterlimit:10;}
</style>
<path class="st25" d="M45.5,3.5c0,0,1-2,6-2s11,5,11,14c0,4.875-1.56,8.231-2,15c-0.373,5.729,0.166,11.166,2,13  c0,0-12.667-2-12.667-14S45.5,3.5,45.5,3.5z"/>
<g>
	<path class="st35" d="M49.833,27.5c0-9.653-2.802-20.593-3.899-24.507C45.612,3.283,45.5,3.5,45.5,3.5s4.333,14,4.333,26   s12.667,14,12.667,14c-0.506-0.506-0.91-1.294-1.227-2.28C58.095,40.36,49.833,37.193,49.833,27.5z"/>
	<path class="st35" d="M60.5,28.5c-0.096,1.474-0.13,2.928-0.099,4.307c0.016-0.759,0.048-1.53,0.099-2.307   c0.44-6.769,2-10.125,2-15c0-0.28-0.023-0.544-0.034-0.817C62.245,18.953,60.904,22.293,60.5,28.5z"/>
</g>
<path class="st35" d="M49.604,4.03l-0.488,16.071c0.427,3.083,0.716,6.307,0.716,9.398c0,5.357,2.526,8.718,5.321,10.801  c0.871-1.179,1.347-2.803,1.347-4.801c0-1.262,0.825-2.961,1.781-4.928C59.715,27.62,61.5,23.947,61.5,19.5  c0-7.844-3.492-10.398-3.971-10.715L49.604,4.03z"/>
<g>
	<path class="st10" d="M62.5,44c-0.026,0-0.052-0.002-0.078-0.006c-0.133-0.021-3.306-0.539-6.522-2.571   c-2.996-1.892-6.567-5.496-6.567-11.923c0-11.788-4.267-25.713-4.31-25.852c-0.038-0.123-0.027-0.256,0.03-0.372   C45.099,3.184,46.251,1,51.5,1C57.031,1,63,6.544,63,15.5c0,2.534-0.403,4.614-0.871,7.023c-0.43,2.214-0.917,4.724-1.13,8.009   c-0.405,6.231,0.305,11.065,1.854,12.614c0.153,0.153,0.19,0.387,0.092,0.581C62.859,43.896,62.686,44,62.5,44z M46.049,3.589   c0.566,1.9,4.284,14.825,4.284,25.911c0,9.242,7.911,12.353,11.016,13.218c-1.207-2.334-1.707-6.733-1.348-12.25   c0.218-3.349,0.711-5.892,1.146-8.136C61.605,19.975,62,17.938,62,15.5C62,7.162,56.55,2,51.5,2   C47.735,2,46.402,3.174,46.049,3.589z"/>
</g>
<path class="st14" d="M50.5,40.466c2,0,4-0.966,4-4.966s5-9,5-16s-3-9-3-9l-5-3L50.5,40.466z"/>
<g>
	<path class="st10" d="M50.5,40.966c-0.276,0-0.5-0.224-0.5-0.5s0.224-0.5,0.5-0.5c1.265,0,2.159-0.406,2.735-1.242   c0.156-0.227,0.467-0.285,0.695-0.128c0.228,0.156,0.285,0.468,0.128,0.695C53.293,40.403,52.096,40.966,50.5,40.966z"/>
</g>
<path class="st1" d="M62.5,49.5h-32c-5.523,0-10,4.477-10,10v3h42V49.5z"/>
<rect x="20.5" y="60.5" class="st6" width="42" height="2"/>
<polygon class="st28" points="51.5,49.5 51.5,33.5 38.5,33.5 38.5,49.5 35,49.5 44.5,59.5 54.936,49.5 "/>
<path class="st8" d="M44.566,56.666L37.759,49.5h-4.755c0,0.495,0.178,0.99,0.546,1.377l9.5,10c0.367,0.386,0.872,0.609,1.403,0.622  c0.016,0,0.031,0,0.047,0c0.515,0,1.011-0.199,1.384-0.556l10.436-10c0.41-0.393,0.612-0.918,0.613-1.444h-4.887L44.566,56.666z"/>
<g>
	<path class="st7" d="M34.141,51.5h5.517l-1.9-2h-4.755c0,0.495,0.178,0.99,0.546,1.377L34.141,51.5z"/>
	<path class="st7" d="M55.739,51.5l0.58-0.556c0.41-0.393,0.612-0.918,0.613-1.444h-4.887l-2.087,2H55.739z"/>
</g>
<g>
	<path class="st10" d="M54.936,50H51.5c-0.276,0-0.5-0.224-0.5-0.5V34H39v15.5c0,0.276-0.224,0.5-0.5,0.5H35   c-0.276,0-0.5-0.224-0.5-0.5S34.724,49,35,49h3V33.5c0-0.276,0.224-0.5,0.5-0.5h13c0.276,0,0.5,0.224,0.5,0.5V49h2.936   c0.276,0,0.5,0.224,0.5,0.5S55.212,50,54.936,50z"/>
</g>
<g>
	<path class="st10" d="M62.5,63h-42c-0.276,0-0.5-0.224-0.5-0.5v-3C20,53.71,24.71,49,30.5,49h8c0.276,0,0.5,0.224,0.5,0.5   S38.776,50,38.5,50h-8c-5.238,0-9.5,4.262-9.5,9.5V62h41V50H51.5c-0.276,0-0.5-0.224-0.5-0.5s0.224-0.5,0.5-0.5h11   c0.276,0,0.5,0.224,0.5,0.5v13C63,62.776,62.776,63,62.5,63z"/>
</g>
<path class="st29" d="M37.5,44.5h2c6.627,0,12-5.373,12-12v-18h-26v18C25.5,39.127,30.873,44.5,37.5,44.5z"/>
<path class="st28" d="M41.5,23.5h-16v8h16c2.209,0,4-1.791,4-4C45.5,25.291,43.709,23.5,41.5,23.5z"/>
<path class="st28" d="M51.5,14.5h-26v15.011c0.251-0.017,0.393-0.05,0.393-0.05l1.607-0.386V27.5c0-4.85,4.722-8.565,7.303-10.233  c1.702,2.646,5.332,7.3,10.764,9.324C45.527,27.05,45.5,27.518,45.5,28c0,4.853,2.074,8.627,4.966,9.361  c0.66-1.487,1.034-3.129,1.034-4.861V14.5z"/>
<g>
	<path class="st10" d="M39.5,45h-2C30.607,45,25,39.393,25,32.5v-14c0-0.276,0.224-0.5,0.5-0.5s0.5,0.224,0.5,0.5v14   C26,38.841,31.159,44,37.5,44h2c0.932,0,1.858-0.111,2.752-0.331c0.268-0.067,0.539,0.098,0.604,0.366   c0.066,0.268-0.098,0.539-0.366,0.604C41.519,44.879,40.512,45,39.5,45z"/>
</g>
<path class="st4" d="M35.5,39.5h-1c-2.209,0-4-1.791-4-4v-1c0-0.552,0.448-1,1-1h7c0.552,0,1,0.448,1,1v1  C39.5,37.709,37.709,39.5,35.5,39.5z"/>
<path class="st3" d="M41.5,29.5h-18v-8h18c2.209,0,4,1.791,4,4l0,0C45.5,27.709,43.709,29.5,41.5,29.5z"/>
<path class="st4" d="M41.5,27.5h-18v2h18c2.209,0,4-1.791,4-4c0-0.347-0.058-0.679-0.141-1C44.912,26.222,43.362,27.5,41.5,27.5z"/>
<path class="st5" d="M45.359,26.5c0.083-0.321,0.141-0.653,0.141-1c0-2.209-1.791-4-4-4h-18v2h18  C43.362,23.5,44.912,24.778,45.359,26.5z"/>
<g>
	<path class="st10" d="M41.5,30h-18c-0.276,0-0.5-0.224-0.5-0.5v-8c0-0.276,0.224-0.5,0.5-0.5h18c2.481,0,4.5,2.019,4.5,4.5   S43.981,30,41.5,30z M24,29h17.5c1.93,0,3.5-1.57,3.5-3.5S43.43,22,41.5,22H24V29z"/>
</g>
<circle class="st16" cx="41.5" cy="25.5" r="2"/>
<g>
	<path class="st10" d="M40.946,27.922c-0.045,0-0.092-0.006-0.138-0.02c-0.359-0.103-0.696-0.29-0.976-0.541   c-0.206-0.185-0.223-0.5-0.039-0.706c0.185-0.206,0.502-0.222,0.706-0.039c0.168,0.151,0.37,0.263,0.585,0.325   c0.266,0.076,0.418,0.354,0.342,0.619C41.363,27.78,41.163,27.922,40.946,27.922z"/>
</g>
<g>
	<path class="st10" d="M42.965,27.362c-0.122,0-0.244-0.044-0.34-0.134c-0.203-0.188-0.214-0.504-0.026-0.707   C42.857,26.243,43,25.88,43,25.5c0-0.827-0.673-1.5-1.5-1.5S40,24.673,40,25.5c0,0.276-0.224,0.5-0.5,0.5S39,25.776,39,25.5   c0-1.378,1.122-2.5,2.5-2.5s2.5,1.122,2.5,2.5c0,0.634-0.238,1.239-0.669,1.702C43.232,27.308,43.099,27.362,42.965,27.362z"/>
</g>
<path class="st3" d="M50.5,22.5v-8c0-3.866-3.134-7-7-7h-15c0,0,0-4,9-4c2.726,0,5.446-0.009,7.913-0.023  c5.531-0.029,10.036,4.434,10.055,9.965L55.5,22.5H50.5z"/>
<path class="st4" d="M50.5,18.631V22.5h5l-0.011-3.189C53.483,18.527,51.72,18.5,51.5,18.5C51.157,18.5,50.825,18.552,50.5,18.631z"/>
<path class="st4" d="M52.117,22.5c0.209-1.512,0.383-3.443,0.383-5.705V14.5c0-4.962-4.038-9-9-9h-7.733  c-1.36-0.262-2.692-0.395-3.961-0.395c-0.625,0-1.225,0.043-1.811,0.105C28.51,6.297,28.5,7.5,28.5,7.5h15c3.866,0,7,3.134,7,7v8  H52.117z"/>
<path class="st5" d="M37.5,5.5c2.726,0,5.446-0.009,7.913-0.023c5.531-0.029,10.036,4.434,10.055,9.965l0.025,7.058H55.5  l-0.032-9.058c-0.019-5.531-4.524-9.994-10.055-9.965C42.946,3.491,40.226,3.5,37.5,3.5c-9,0-9,4-9,4h1.125  C30.75,6.5,33,5.5,37.5,5.5z"/>
<g>
	<path class="st10" d="M50.5,15c-0.276,0-0.5-0.224-0.5-0.5c0-3.584-2.916-6.5-6.5-6.5C43.224,8,43,7.776,43,7.5S43.224,7,43.5,7   c4.136,0,7.5,3.364,7.5,7.5C51,14.776,50.776,15,50.5,15z"/>
</g>
<g>
	<path class="st10" d="M55.5,23h-5c-0.276,0-0.5-0.224-0.5-0.5v-3.17c0-0.276,0.224-0.5,0.5-0.5s0.5,0.224,0.5,0.5V22h3.998   l-0.03-8.556c-0.009-2.541-1.007-4.925-2.812-6.714c-1.792-1.776-4.166-2.753-6.688-2.753c-0.018,0-0.035,0-0.052,0   C42.948,3.991,40.227,4,37.5,4c-6.345,0-7.956,2.028-8.363,3h6.281c0.276,0,0.5,0.224,0.5,0.5S35.694,8,35.418,8H28.5   C28.224,8,28,7.776,28,7.5C28,7.316,28.108,3,37.5,3c2.725,0,5.444-0.009,7.911-0.022c0.019,0,0.039,0,0.058,0   c2.788,0,5.411,1.079,7.392,3.042c1.994,1.977,3.098,4.612,3.107,7.42L56,22.498c0,0.133-0.052,0.261-0.146,0.355   S55.633,23,55.5,23z"/>
</g>
<path class="st3" d="M51.5,20.5c0,0,2,0,4,1s3,3,3,6c0,4-1,6-3,7s-4,1-4,1c-2.209,0-4-3.358-4-7.5S49.291,20.5,51.5,20.5z"/>
<path class="st4" d="M55.5,32.5c-2,1-4,1-4,1c-2.028,0-3.699-2.832-3.96-6.5c-0.023,0.328-0.04,0.66-0.04,1c0,4.142,1.791,7.5,4,7.5  c0,0,2,0,4-1s3-3,3-7c0-0.302-0.018-0.586-0.038-0.867C58.281,29.878,57.299,31.601,55.5,32.5z"/>
<path class="st5" d="M51.5,22.5c0,0,2,0,4,1c1.799,0.899,2.781,2.615,2.962,5.133c0.02-0.363,0.038-0.731,0.038-1.133c0-3-1-5-3-6  s-4-1-4-1c-2.209,0-4,3.358-4,7.5c0,0.34,0.016,0.672,0.04,1C47.801,25.332,49.472,22.5,51.5,22.5z"/>
<g>
	<path class="st4" d="M53.45,35.732c-0.156,0-0.31-0.073-0.408-0.209C52.959,35.406,51,32.602,51,27.571   c0-5.084,2.018-7.082,2.103-7.164c0.2-0.191,0.515-0.185,0.707,0.014c0.191,0.199,0.185,0.514-0.012,0.705   C53.766,21.159,52,22.975,52,27.571c0,4.714,1.838,7.345,1.856,7.371c0.161,0.225,0.108,0.537-0.116,0.698   C53.652,35.702,53.551,35.732,53.45,35.732z"/>
</g>
<g>
	<path class="st10" d="M51.5,36c-2.523,0-4.5-3.514-4.5-8s1.977-8,4.5-8c0.276,0,0.5,0.224,0.5,0.5S51.776,21,51.5,21   c-1.897,0-3.5,3.206-3.5,7s1.603,7,3.5,7c0.018,0,1.914-0.016,3.776-0.947C57.186,33.098,58,31.139,58,27.5   c0-2.82-0.891-4.636-2.724-5.553c-0.247-0.124-0.347-0.424-0.224-0.671s0.424-0.347,0.671-0.224C57.897,22.14,59,24.309,59,27.5   c0,4.018-1.01,6.314-3.276,7.447C53.642,35.988,51.586,36,51.5,36z"/>
</g>
<ellipse class="st7" cx="56.5" cy="28" rx="2" ry="4.5"/>
<g>
	<path class="st10" d="M56.5,33c-0.276,0-0.5-0.224-0.5-0.5s0.224-0.5,0.5-0.5c0.612,0,1.5-1.558,1.5-4s-0.888-4-1.5-4   S55,25.558,55,28c0,0.276-0.224,0.5-0.5,0.5S54,28.276,54,28c0-2.851,1.075-5,2.5-5s2.5,2.149,2.5,5S57.925,33,56.5,33z"/>
</g>
<path class="st14" d="M43.5,7.5h-7.928c-9.928-2-15.072,4-15.072,9c0,12,5,11,5,11c0-7.666,9.243-12.574,10.015-12.971  C35.819,15.12,40.783,24.531,49.5,25.5c0,0,1-3.41,1-8.705V14.5C50.5,10.634,47.366,7.5,43.5,7.5z"/>
<path class="st25" d="M35.515,12.529C34.743,12.926,25.5,17.834,25.5,25.5c0,0-4.566,0.905-4.969-9.496  C20.521,16.169,20.5,16.336,20.5,16.5c0,12,5,11,5,11c0-7.666,9.243-12.574,10.015-12.971C35.819,15.12,40.783,24.531,49.5,25.5  c0,0,1-3.41,1-8.705v-2c0,5.295-1,8.705-1,8.705C40.783,22.531,35.819,13.12,35.515,12.529z"/>
<path class="st18" d="M43.5,7.5h-7.928c-9.928-2-15.072,4-15.072,9c0,0.529,0.013,1.024,0.031,1.504  c0.325-4.89,5.438-10.438,15.041-8.504H43.5c3.866,0,7,3.134,7,7v-2C50.5,10.634,47.366,7.5,43.5,7.5z"/>
<g>
	<path class="st10" d="M50.5,15c-0.276,0-0.5-0.224-0.5-0.5c0-3.584-2.916-6.5-6.5-6.5C43.224,8,43,7.776,43,7.5S43.224,7,43.5,7   c4.136,0,7.5,3.364,7.5,7.5C51,14.776,50.776,15,50.5,15z"/>
</g>
<g>
	<path class="st10" d="M25.229,28.019c-0.475,0-1.344-0.121-2.242-0.856C21.005,25.538,20,21.95,20,16.5   c0-2.665,1.35-5.361,3.612-7.212c2.976-2.436,7.258-3.244,12.059-2.278c0.271,0.055,0.446,0.318,0.392,0.589   s-0.319,0.447-0.589,0.392c-4.5-0.907-8.489-0.171-11.228,2.071C22.213,11.725,21,14.132,21,16.5c0,6.397,1.425,8.909,2.621,9.889   c0.544,0.446,1.057,0.583,1.391,0.62c0.37-7.619,9.244-12.396,10.274-12.925c0.246-0.127,0.547-0.029,0.673,0.216   c0.201,0.391,4.944,9.444,13.167,10.647c0.21-0.866,0.669-3.05,0.822-6.093c0.014-0.276,0.255-0.493,0.524-0.475   c0.276,0.014,0.488,0.249,0.475,0.524c-0.206,4.101-0.937,6.63-0.967,6.736c-0.068,0.233-0.3,0.381-0.535,0.356   c-8.031-0.893-12.992-8.784-14.13-10.791C33.412,16.278,26,20.877,26,27.5c0,0.238-0.168,0.443-0.402,0.49   C25.582,27.994,25.447,28.019,25.229,28.019z"/>
</g>
<g>
	<path class="st15" d="M21.5,43.5c0,0,1-3,5-3s6,3,6,7s-1,15-5,15c-3,0-5-7-5-7h-11c0,0-2,7-5,7c-4,0-5-11-5-15s2-7,6-7s5,3,5,3   H21.5z"/>
	<path class="st16" d="M27.5,60.5c-2.37,0-3.492-4.368-3.858-6.203c-0.093-0.465-0.505-0.797-0.979-0.797H11.337   c-0.474,0-0.886,0.332-0.979,0.797C9.992,56.132,8.87,60.5,6.5,60.5c-3.641,0-4.796-9.111-4.974-13.764   C1.509,46.986,1.5,47.241,1.5,47.5c0,4,1,15,5,15c3,0,5-7,5-7h11c0,0,2,7,5,7c4,0,5-11,5-15c0-0.259-0.009-0.514-0.026-0.764   C32.296,51.389,31.141,60.5,27.5,60.5z"/>
	<path class="st17" d="M7.5,42.5c4,0,5,3,5,3h9c0,0,1-3,5-3c3.741,0,5.732,2.624,5.974,6.236c0.018-0.459,0.026-0.877,0.026-1.236   c0-4-2-7-6-7s-5,3-5,3h-9c0,0-1-3-5-3s-6,3-6,7c0,0.359,0.008,0.777,0.026,1.236C1.768,45.124,3.759,42.5,7.5,42.5z"/>
	<g>
		<path class="st10" d="M27.5,63c-2.97,0-4.877-5.413-5.372-7H11.872c-0.495,1.587-2.402,7-5.372,7C1.149,63,1,47.655,1,47.5    C1,42.874,3.491,40,7.5,40c3.526,0,4.916,2.145,5.33,3h8.34c0.414-0.855,1.804-3,5.33-3c4.009,0,6.5,2.874,6.5,7.5    C33,47.655,32.851,63,27.5,63z M11.5,55h11c0.223,0,0.419,0.148,0.481,0.362C23.509,57.208,25.351,62,27.5,62    c3.18,0,4.5-9.444,4.5-14.5c0-4.07-2.056-6.5-5.5-6.5c-3.598,0-4.517,2.631-4.526,2.658C21.906,43.862,21.715,44,21.5,44h-9    c-0.215,0-0.406-0.138-0.474-0.342C11.989,43.552,11.069,41,7.5,41C4.056,41,2,43.43,2,47.5C2,52.556,3.32,62,6.5,62    c2.152,0,3.992-4.791,4.519-6.637C11.081,55.148,11.277,55,11.5,55z"/>
	</g>
	<circle class="st1" cx="9" cy="46" r="1.5"/>
	<circle class="st1" cx="5" cy="50" r="1.5"/>
	<path class="st4" d="M19.5,52.5h-5c-0.552,0-1-0.448-1-1l0,0c0-0.552,0.448-1,1-1h5c0.552,0,1,0.448,1,1l0,0   C20.5,52.052,20.052,52.5,19.5,52.5z"/>
	<polygon class="st1" points="29.5,46.5 27.5,46.5 27.5,44.5 25.5,44.5 25.5,46.5 23.5,46.5 23.5,48.5 25.5,48.5 25.5,50.5    27.5,50.5 27.5,48.5 29.5,48.5  "/>
	<g>
		<path class="st10" d="M17,44c-0.276,0-0.5-0.224-0.5-0.5v-5c0-0.562-0.623-0.941-1.649-1.5C13.581,36.309,12,35.449,12,33.5    c0-2.769,2.29-3.5,3.5-3.5c0.275,0,0.498,0.223,0.499,0.498s-0.222,0.5-0.497,0.502C15.246,31.002,13,31.088,13,33.5    c0,1.354,1.131,1.97,2.329,2.622c1.067,0.581,2.171,1.182,2.171,2.378v5C17.5,43.776,17.276,44,17,44z"/>
	</g>
</g>
</svg>
